<svg id="Layer_1" data-name="Layer 1" xmlns="http://www.w3.org/2000/svg" viewBox="0 0 280.63 300"><defs><style>.cls-1{fill:#a8764d;}.cls-2{fill:#9f6d44;}.cls-3{fill:#fff;}.cls-4{fill:#654122;}.cls-5{fill:#bc9d7d;}.cls-6,.cls-8{fill:none;}.cls-6,.cls-7,.cls-8{stroke:#231f20;stroke-miterlimit:10;}.cls-7{fill:#231f20;}.cls-7,.cls-8{stroke-width:5px;}.cls-9{fill:#674222;}</style></defs><polygon class="cls-1" points="0 53.85 8.65 217.15 126.64 300 124.92 126.7 0 53.85"/><polygon class="cls-2" points="0 53.85 152.94 0 280.63 63.87 124.92 126.7 0 53.85"/><polygon class="cls-3" points="75.09 109.09 76.82 157.08 115.57 180.9 115.57 132.91 75.09 109.09"/><polygon class="cls-4" points="124.92 126.7 126.64 300 277.17 230.61 280.63 63.87 124.92 126.7"/><polyline class="cls-5" points="59.53 32.89 179.24 102.19 228.03 82.85 106.79 16.25"/><polyline class="cls-5" points="179.24 102.19 179.24 142.92 228.03 123.52 228.03 82.85"/><polyline class="cls-6" points="83.05 23.13 203.64 92.52 203.64 131.19"/><path class="cls-7" d="M201.69,206.44l32.87-13.11s.69,26.92-16.44,29.68S201.69,206.44,201.69,206.44Z" transform="translate(-9.99)"/><polyline class="cls-8" points="208.13 224.74 208.13 246.49 200.69 248.56 215.23 243.38"/><polygon class="cls-8" points="247.06 182.97 242.22 195.05 246.62 194.39 252.32 191.26 247.06 182.97"/><line class="cls-8" x1="247.27" y1="221.12" x2="246.62" y2="194.39"/><polyline class="cls-9" points="197.75 195.91 195.33 206.27 203.64 210.59"/></svg>