<svg id="Layer_2" data-name="Layer 2" xmlns="http://www.w3.org/2000/svg" viewBox="0 0 275.77 176.42"><defs><style>.cls-1{fill:#00a651;}.cls-2{fill:#fff;}.cls-3{fill:#e7e6db;}.cls-4{fill:#006838;}.cls-5,.cls-6{fill:none;stroke-miterlimit:10;}.cls-5{stroke:#231f20;stroke-width:4px;}.cls-6{stroke:#fff200;stroke-width:2px;}</style></defs><polygon class="cls-1" points="61.78 43.55 10.03 105.09 224.37 157.89 271.92 84.81 61.78 43.55"/><path class="cls-2" d="M197.85,147.64l-39.32,55.54-24.62-6.06a40.46,40.46,0,0,1-6.79-7.59,38.67,38.67,0,0,1-6.9-22.05c0-22.07,18.61-39.95,41.55-39.95a43.16,43.16,0,0,1,9.92,1.15A41.43,41.43,0,0,1,197.85,147.64Z" transform="translate(-14.53 -65.08)"/><polygon class="cls-3" points="192.72 69.27 183.32 82.56 144 138.1 119.38 132.04 108.92 129.46 112.59 124.45 157.16 63.6 158 62.45 192.72 69.27"/><polygon class="cls-4" points="10.03 105.09 17.73 123.63 230.31 176.42 224.37 157.89 10.03 105.09"/><polygon class="cls-4" points="224.37 157.89 230.31 176.42 275.77 100.72 271.92 84.81 224.37 157.89"/><path class="cls-5" d="M91.83,130.6s-12.08-8.27-18.35.93a5.52,5.52,0,0,0,1,7.22c3.82,3.37,9.39,9.49,6.1,14.1-4.8,6.72-13.69,7.81-17.38,4.77" transform="translate(-14.53 -65.08)"/><line class="cls-5" x1="73.59" y1="57" x2="51.68" y2="100.27"/><path class="cls-5" d="M244.84,165.54s-12.07-8.28-18.34.92a5.52,5.52,0,0,0,.95,7.22c3.82,3.38,9.39,9.49,6.09,14.1-4.79,6.73-13.68,7.81-17.37,4.78" transform="translate(-14.53 -65.08)"/><line class="cls-5" x1="226.6" y1="91.93" x2="204.7" y2="135.2"/><path class="cls-2" d="M199,146.05c1.15,2.88,6,15.86,0,30.1A35.88,35.88,0,0,1,161.7,198.7" transform="translate(-14.53 -65.08)"/><polygon class="cls-1" points="52.12 19.73 0.37 81.27 214.71 134.07 262.26 60.99 52.12 19.73"/><path class="cls-2" d="M188.19,123.81l-39.32,55.54-24.62-6.06a40.46,40.46,0,0,1-6.79-7.59,38.67,38.67,0,0,1-6.9-22c0-22.07,18.61-39.95,41.55-39.95a43.16,43.16,0,0,1,9.92,1.15A41.43,41.43,0,0,1,188.19,123.81Z" transform="translate(-14.53 -65.08)"/><polygon class="cls-3" points="183.06 45.44 173.66 58.73 134.34 114.27 109.72 108.21 99.26 105.63 102.93 100.62 147.5 39.77 148.34 38.62 183.06 45.44"/><polygon class="cls-4" points="0.37 81.27 8.06 99.8 220.65 152.6 214.71 134.07 0.37 81.27"/><polygon class="cls-4" points="214.71 134.07 220.65 152.6 266.11 76.9 262.26 60.99 214.71 134.07"/><path class="cls-5" d="M82.17,106.78s-12.08-8.28-18.35.93a5.51,5.51,0,0,0,.95,7.21c3.82,3.38,9.39,9.49,6.1,14.11-4.8,6.72-13.69,7.8-17.38,4.77" transform="translate(-14.53 -65.08)"/><line class="cls-5" x1="63.93" y1="33.17" x2="42.02" y2="76.45"/><path class="cls-5" d="M235.18,141.71s-12.07-8.27-18.34.93a5.5,5.5,0,0,0,.95,7.21c3.82,3.38,9.38,9.49,6.09,14.11-4.79,6.72-13.68,7.81-17.37,4.77" transform="translate(-14.53 -65.08)"/><line class="cls-5" x1="216.94" y1="68.1" x2="195.04" y2="111.38"/><path class="cls-2" d="M189.31,122.22c1.16,2.88,6,15.86,0,30.1A35.86,35.86,0,0,1,152,174.87" transform="translate(-14.53 -65.08)"/><polygon class="cls-1" points="51.75 0 0 61.54 214.34 114.34 261.89 41.26 51.75 0"/><path class="cls-2" d="M187.82,104.08,148.5,159.62l-24.62-6.06a40.46,40.46,0,0,1-6.79-7.59,38.67,38.67,0,0,1-6.9-22c0-22.07,18.61-39.95,41.55-39.95a43.16,43.16,0,0,1,9.92,1.15A41.43,41.43,0,0,1,187.82,104.08Z" transform="translate(-14.53 -65.08)"/><polygon class="cls-3" points="182.69 25.71 173.29 39 133.97 94.54 109.35 88.48 98.89 85.9 102.56 80.89 147.13 20.04 147.97 18.89 182.69 25.71"/><polygon class="cls-4" points="0 61.54 7.69 80.07 220.28 132.87 214.34 114.34 0 61.54"/><polygon class="cls-4" points="214.34 114.34 220.28 132.87 265.73 57.17 261.89 41.26 214.34 114.34"/><path class="cls-5" d="M81.79,87.05S69.72,78.77,63.45,88a5.51,5.51,0,0,0,1,7.21c3.82,3.38,9.39,9.49,6.09,14.11-4.79,6.72-13.68,7.8-17.37,4.77" transform="translate(-14.53 -65.08)"/><line class="cls-5" x1="63.55" y1="13.44" x2="41.65" y2="56.72"/><path class="cls-5" d="M234.81,122s-12.07-8.27-18.35.93a5.52,5.52,0,0,0,1,7.21c3.81,3.38,9.38,9.49,6.09,14.11C218.72,151,209.82,152,206.14,149" transform="translate(-14.53 -65.08)"/><line class="cls-5" x1="216.57" y1="48.37" x2="194.67" y2="91.65"/><path class="cls-2" d="M188.94,102.49c1.15,2.88,6,15.86,0,30.1a39.42,39.42,0,0,1-15.91,18.22,41.51,41.51,0,0,1-22.66,6.11" transform="translate(-14.53 -65.08)"/><path class="cls-6" d="M151.39,158.33" transform="translate(-14.53 -65.08)"/></svg>