<svg id="Layer_1" data-name="Layer 1" xmlns="http://www.w3.org/2000/svg" viewBox="0 0 176.82 143.84"><defs><style>.cls-1{fill:#b29875;}.cls-1,.cls-2{stroke:#231f20;}.cls-1,.cls-10,.cls-2,.cls-9{stroke-miterlimit:10;}.cls-2{fill:#fff0d2;}.cls-3{font-size:12px;fill:#fff;font-family:MyriadPro-Regular, Myriad Pro;}.cls-4{letter-spacing:0em;}.cls-5{letter-spacing:0.02em;}.cls-6{letter-spacing:-0.01em;}.cls-7{letter-spacing:0em;}.cls-8{letter-spacing:0.01em;}.cls-10,.cls-9{fill:none;stroke-width:2px;}.cls-9{stroke:#00a651;}.cls-10{stroke:#ed1c24;}</style></defs><polygon class="cls-1" points="1.02 0.5 94.18 0.5 94.05 143.28 0.5 133.12 1.02 0.5"/><polyline class="cls-2" points="94.18 0.5 85.88 15.85 5.48 14.33 1.02 0.5"/><text class="cls-3" transform="translate(111.5 38.41)"><tspan class="cls-4">R</tspan><tspan x="6.5" y="0">e</tspan><tspan class="cls-5" x="12.52" y="0">c</tspan><tspan class="cls-6" x="18.11" y="0">y</tspan><tspan x="23.64" y="0">clable in</tspan><tspan class="cls-7" x="0" y="14.4">C</tspan><tspan x="6.92" y="14.4">i</tspan><tspan class="cls-8" x="9.73" y="14.4">t</tspan><tspan x="13.81" y="14.4">y 1</tspan><tspan class="cls-7" x="0" y="43.2">C</tspan><tspan x="6.92" y="43.2">i</tspan><tspan class="cls-8" x="9.73" y="43.2">t</tspan><tspan x="13.81" y="43.2">y 2</tspan><tspan class="cls-7" x="0" y="72">C</tspan><tspan x="6.92" y="72">i</tspan><tspan class="cls-8" x="9.73" y="72">t</tspan><tspan x="13.81" y="72">y 3</tspan></text><polyline class="cls-9" points="149.34 50.17 154.84 55.47 164.96 44.59"/><polyline class="cls-9" points="149.34 75.95 154.84 81.24 164.96 70.37"/><line class="cls-10" x1="146.74" y1="102.19" x2="154.84" y2="110.41"/><line class="cls-10" x1="154.84" y1="102.19" x2="146.74" y2="110.41"/></svg>