<svg id="Layer_2" data-name="Layer 2" xmlns="http://www.w3.org/2000/svg" viewBox="0 0 290.16 164.73"><defs><style>.cls-1{fill:#fff;}.cls-1,.cls-2,.cls-4{stroke:#231f20;stroke-miterlimit:10;}.cls-2{fill:#d7eaf3;}.cls-3{fill:#231f20;}.cls-4{fill:none;}</style></defs><rect class="cls-1" x="0.5" y="0.5" width="289.16" height="147.47"/><rect class="cls-2" x="10.91" y="98.23" width="152.67" height="39.9" rx="10.63"/><path class="cls-3" d="M25.46,202.36l-.84,2.54H23.54l2.75-8.08h1.26l2.76,8.08H29.19l-.86-2.54Zm2.65-.82-.79-2.32c-.18-.53-.3-1-.42-1.48h0c-.12.48-.25,1-.41,1.46l-.79,2.34Z" transform="translate(-4.28 -92.19)"/><path class="cls-3" d="M36.33,196.39v7c0,.52,0,1.11.05,1.5h-1l0-1h0a2.14,2.14,0,0,1-2,1.14c-1.4,0-2.48-1.18-2.48-2.95,0-1.93,1.19-3.12,2.6-3.12a1.93,1.93,0,0,1,1.75.89h0v-3.46Zm-1,5.07a1.65,1.65,0,0,0-.05-.44,1.55,1.55,0,0,0-1.52-1.23c-1.09,0-1.74,1-1.74,2.25s.57,2.14,1.71,2.14a1.59,1.59,0,0,0,1.55-1.26,1.64,1.64,0,0,0,.05-.45Z" transform="translate(-4.28 -92.19)"/><path class="cls-3" d="M43.1,196.39v7c0,.52,0,1.11,0,1.5H42.2l-.05-1h0a2.14,2.14,0,0,1-2,1.14c-1.4,0-2.48-1.18-2.48-2.95,0-1.93,1.18-3.12,2.6-3.12a1.93,1.93,0,0,1,1.75.89h0v-3.46Zm-1.05,5.07a2.2,2.2,0,0,0,0-.44,1.55,1.55,0,0,0-1.53-1.23c-1.09,0-1.74,1-1.74,2.25s.58,2.14,1.72,2.14A1.59,1.59,0,0,0,42,202.92a2.14,2.14,0,0,0,0-.45Z" transform="translate(-4.28 -92.19)"/><path class="cls-3" d="M44.86,200.91c0-.69,0-1.27,0-1.81h.92l0,1.14h0A1.76,1.76,0,0,1,47.42,199a1.28,1.28,0,0,1,.3,0v1a1.28,1.28,0,0,0-.36,0A1.47,1.47,0,0,0,46,201.32a2.38,2.38,0,0,0-.05.49v3.09h-1Z" transform="translate(-4.28 -92.19)"/><path class="cls-3" d="M49.25,202.19a1.86,1.86,0,0,0,2,2,4,4,0,0,0,1.61-.3l.18.75a4.72,4.72,0,0,1-1.94.36,2.69,2.69,0,0,1-2.85-2.93c0-1.75,1-3.13,2.72-3.13a2.46,2.46,0,0,1,2.4,2.74,4.68,4.68,0,0,1,0,.49Zm3.09-.75a1.5,1.5,0,0,0-1.46-1.72,1.74,1.74,0,0,0-1.62,1.72Z" transform="translate(-4.28 -92.19)"/><path class="cls-3" d="M54.53,203.82a2.69,2.69,0,0,0,1.39.42c.77,0,1.13-.38,1.13-.86s-.3-.78-1.08-1.07c-1-.37-1.54-.95-1.54-1.64a1.79,1.79,0,0,1,2-1.71,2.91,2.91,0,0,1,1.43.36l-.26.77a2.32,2.32,0,0,0-1.19-.33c-.62,0-1,.36-1,.79s.35.69,1.1,1c1,.39,1.53.89,1.53,1.75,0,1-.8,1.74-2.18,1.74a3.33,3.33,0,0,1-1.63-.39Z" transform="translate(-4.28 -92.19)"/><path class="cls-3" d="M59.28,203.82a2.69,2.69,0,0,0,1.39.42c.77,0,1.13-.38,1.13-.86s-.3-.78-1.08-1.07c-1-.37-1.54-.95-1.54-1.64a1.8,1.8,0,0,1,2-1.71,2.9,2.9,0,0,1,1.42.36l-.26.77a2.32,2.32,0,0,0-1.19-.33c-.62,0-1,.36-1,.79s.35.69,1.1,1c1,.39,1.53.89,1.53,1.75,0,1-.79,1.74-2.17,1.74a3.27,3.27,0,0,1-1.63-.39Z" transform="translate(-4.28 -92.19)"/><path class="cls-3" d="M67.8,196.82v3.38h3.91v-3.38h1.05v8.08H71.71v-3.79H67.8v3.79h-1v-8.08Z" transform="translate(-4.28 -92.19)"/><path class="cls-3" d="M75.13,202.19a1.87,1.87,0,0,0,2,2,4,4,0,0,0,1.61-.3l.18.75A4.67,4.67,0,0,1,77,205a2.7,2.7,0,0,1-2.86-2.93c0-1.75,1-3.13,2.73-3.13a2.47,2.47,0,0,1,2.4,2.74,4.15,4.15,0,0,1,0,.49Zm3.1-.75a1.51,1.51,0,0,0-1.47-1.72,1.75,1.75,0,0,0-1.62,1.72Z" transform="translate(-4.28 -92.19)"/><path class="cls-3" d="M80.56,200.91c0-.69,0-1.27,0-1.81h.92l0,1.14h0A1.76,1.76,0,0,1,83.12,199a1.28,1.28,0,0,1,.3,0v1a1.28,1.28,0,0,0-.36,0,1.47,1.47,0,0,0-1.41,1.36,2.38,2.38,0,0,0-.05.49v3.09h-1Z" transform="translate(-4.28 -92.19)"/><path class="cls-3" d="M85,202.19a1.86,1.86,0,0,0,2,2,3.91,3.91,0,0,0,1.6-.3l.18.75a4.63,4.63,0,0,1-1.93.36,2.69,2.69,0,0,1-2.85-2.93c0-1.75,1-3.13,2.72-3.13a2.46,2.46,0,0,1,2.4,2.74,2.72,2.72,0,0,1,0,.49Zm3.09-.75a1.5,1.5,0,0,0-1.46-1.72A1.74,1.74,0,0,0,85,201.44Z" transform="translate(-4.28 -92.19)"/><path class="cls-3" d="M11.26,105.21a3.68,3.68,0,0,0,1.87.53c1.07,0,1.69-.57,1.69-1.38s-.43-1.19-1.52-1.61c-1.32-.47-2.14-1.15-2.14-2.29a2.33,2.33,0,0,1,2.62-2.19,3.66,3.66,0,0,1,1.78.39l-.28.85a3.33,3.33,0,0,0-1.54-.38c-1.1,0-1.52.66-1.52,1.21,0,.76.49,1.13,1.61,1.56,1.36.53,2.06,1.19,2.06,2.37s-.92,2.33-2.83,2.33a4.25,4.25,0,0,1-2.06-.51Z" transform="translate(-4.28 -92.19)"/><path class="cls-3" d="M17.94,103.77a1.87,1.87,0,0,0,2,2,3.92,3.92,0,0,0,1.61-.3l.18.75a4.67,4.67,0,0,1-1.93.36,2.69,2.69,0,0,1-2.85-2.93c0-1.75,1-3.13,2.72-3.13a2.47,2.47,0,0,1,2.4,2.74,4.15,4.15,0,0,1,0,.49ZM21,103a1.51,1.51,0,0,0-1.47-1.72A1.76,1.76,0,0,0,18,103Z" transform="translate(-4.28 -92.19)"/><path class="cls-3" d="M23.37,102.25c0-.6,0-1.09-.05-1.57h.93l.06,1h0a2.13,2.13,0,0,1,1.92-1.1c.8,0,2,.48,2,2.48v3.46H27.25v-3.34c0-.94-.34-1.72-1.34-1.72a1.5,1.5,0,0,0-1.42,1.08,1.75,1.75,0,0,0-.07.49v3.49H23.37Z" transform="translate(-4.28 -92.19)"/><path class="cls-3" d="M35,98v7c0,.52,0,1.11.05,1.5h-1l0-1h0a2.15,2.15,0,0,1-2,1.14c-1.4,0-2.48-1.18-2.48-3,0-1.93,1.18-3.12,2.6-3.12a1.93,1.93,0,0,1,1.75.89h0V98ZM34,103a2.18,2.18,0,0,0,0-.44,1.55,1.55,0,0,0-1.53-1.23c-1.09,0-1.74,1-1.74,2.25s.58,2.14,1.72,2.14a1.6,1.6,0,0,0,1.55-1.26,2.15,2.15,0,0,0,0-.45Z" transform="translate(-4.28 -92.19)"/><path class="cls-3" d="M37.38,103.77a1.87,1.87,0,0,0,2,2,4,4,0,0,0,1.61-.3l.18.75a4.67,4.67,0,0,1-1.93.36,2.69,2.69,0,0,1-2.85-2.93c0-1.75,1-3.13,2.72-3.13a2.47,2.47,0,0,1,2.4,2.74,4.15,4.15,0,0,1,0,.49Zm3.1-.75A1.51,1.51,0,0,0,39,101.3,1.76,1.76,0,0,0,37.39,103Z" transform="translate(-4.28 -92.19)"/><path class="cls-3" d="M42.81,102.49c0-.69,0-1.27-.05-1.81h.92l0,1.14h.05a1.75,1.75,0,0,1,1.6-1.28,1.28,1.28,0,0,1,.3,0v1a1.28,1.28,0,0,0-.36,0,1.47,1.47,0,0,0-1.41,1.36,2.38,2.38,0,0,0,0,.49v3.09h-1Z" transform="translate(-4.28 -92.19)"/><rect class="cls-1" x="256.4" y="8.45" width="27.98" height="27.98"/><path class="cls-1" d="M121.89,216.88l-3.45,13.45Z" transform="translate(-4.28 -92.19)"/><polyline class="cls-4" points="133.22 132.36 117.61 124.69 130.53 156.35"/><path class="cls-3" d="M123.69,256.78l-2-8.08h1.1l1,4.09c.24,1,.46,2,.6,2.79h0c.14-.8.39-1.76.66-2.8l1.08-4.08h1.09l1,4.1c.23,1,.44,1.92.56,2.77h0c.16-.89.39-1.78.64-2.79l1.07-4.08h1.07l-2.29,8.08h-1.09l-1-4.21a22.78,22.78,0,0,1-.53-2.64h0a26.42,26.42,0,0,1-.63,2.64l-1.15,4.21Z" transform="translate(-4.28 -92.19)"/><path class="cls-3" d="M133.47,249.35a.62.62,0,0,1-.67.65.63.63,0,0,1-.64-.65.65.65,0,0,1,.66-.66A.63.63,0,0,1,133.47,249.35Zm-1.18,7.43V251h1.06v5.8Z" transform="translate(-4.28 -92.19)"/><path class="cls-3" d="M135.1,252.55c0-.6,0-1.09,0-1.57H136l.06,1h0a2.14,2.14,0,0,1,1.92-1.09c.81,0,2,.48,2,2.47v3.46h-1v-3.34c0-.94-.35-1.72-1.35-1.72a1.5,1.5,0,0,0-1.41,1.08,1.45,1.45,0,0,0-.07.49v3.49H135.1Z" transform="translate(-4.28 -92.19)"/><path class="cls-3" d="M146.77,248.27v7c0,.52,0,1.11,0,1.5h-.94l0-1h0a2.16,2.16,0,0,1-2,1.14c-1.4,0-2.48-1.19-2.48-3,0-1.93,1.19-3.11,2.6-3.11a2,2,0,0,1,1.76.88h0v-3.46Zm-1.05,5.07a1.65,1.65,0,0,0-.05-.44,1.55,1.55,0,0,0-1.52-1.23c-1.09,0-1.74,1-1.74,2.25s.57,2.14,1.71,2.14a1.67,1.67,0,0,0,1.6-1.71Z" transform="translate(-4.28 -92.19)"/><path class="cls-3" d="M153.78,253.83a2.84,2.84,0,0,1-2.89,3.09,2.76,2.76,0,0,1-2.78-3,2.83,2.83,0,0,1,2.88-3.08A2.74,2.74,0,0,1,153.78,253.83Zm-4.6.06c0,1.27.73,2.23,1.76,2.23s1.76-.94,1.76-2.25c0-1-.49-2.23-1.74-2.23S149.18,252.79,149.18,253.89Z" transform="translate(-4.28 -92.19)"/><path class="cls-3" d="M155.45,251l.77,3c.17.65.32,1.25.43,1.85h0c.13-.59.32-1.22.51-1.84l1-3H159l.9,2.9c.22.7.38,1.31.52,1.9h0a19.29,19.29,0,0,1,.44-1.89l.83-2.91h1.05l-1.88,5.8h-1l-.88-2.77a18.91,18.91,0,0,1-.52-1.9h0A19.58,19.58,0,0,1,158,254l-.94,2.76h-1l-1.75-5.8Z" transform="translate(-4.28 -92.19)"/></svg>