<svg id="Layer_1" data-name="Layer 1" xmlns="http://www.w3.org/2000/svg" viewBox="0 0 200.32 200.32"><defs><style>.cls-1{fill:#009444;}.cls-2{fill:#2e3192;}.cls-3{fill:#fff200;}.cls-4,.cls-5{fill:none;stroke-miterlimit:10;}.cls-4{stroke:#231f20;stroke-width:3px;}.cls-5{stroke:#262262;stroke-width:4px;}</style></defs><rect class="cls-1" width="200.32" height="200.32"/><path class="cls-2" d="M139.45,164.28c-18.65,26.34-24.94,35.4-24.94,35.4H43s6.29-9.06,24.94-35.4C95.13,125.9,39.54,74.11,30,63.82A177.16,177.16,0,0,0,6.05,42.41q-3-2.27-6-4.33V-.32H33.83c5,5.36,15.28,12.57,28,23.41a286.29,286.29,0,0,1,39.59,40.73C119.49,86.6,162.59,131.6,139.45,164.28Z" transform="translate(0.16 0.32)"/><polygon class="cls-3" points="170.89 90.99 136.88 90.94 153.93 61.52 170.89 90.99"/><line class="cls-4" x1="153.9" y1="90.96" x2="153.9" y2="123.1"/><line class="cls-4" x1="153.9" y1="72.99" x2="153.9" y2="81.15"/><line class="cls-4" x1="153.9" y1="84.54" x2="153.9" y2="86.2"/><path class="cls-2" d="M61.86,23.09,6.05,42.41q-3-2.27-6-4.33V-.32H33.83C38.87,5,49.11,12.25,61.86,23.09Z" transform="translate(0.16 0.32)"/><path class="cls-5" d="M30.71,35.73,46.23,50.62" transform="translate(0.16 0.32)"/><path class="cls-5" d="M47.57,37.65,63.19,52.44" transform="translate(0.16 0.32)"/><path class="cls-5" d="M52.34,71,67.86,85.88" transform="translate(0.16 0.32)"/><path class="cls-5" d="M84.48,78.44,100,93.33" transform="translate(0.16 0.32)"/><path class="cls-5" d="M87.22,162.27,76.6,181" transform="translate(0.16 0.32)"/><path class="cls-5" d="M112.74,151.42l-10.62,18.7" transform="translate(0.16 0.32)"/><path class="cls-5" d="M92.24,112.17S108.91,118,100,133.86" transform="translate(0.16 0.32)"/><path class="cls-5" d="M132.29,130.46s13.48,11.38-.54,23" transform="translate(0.16 0.32)"/></svg>