<svg id="Layer_1" data-name="Layer 1" xmlns="http://www.w3.org/2000/svg" viewBox="0 0 300.37 260.38"><defs><style>.cls-1,.cls-2{fill:#58595b;}.cls-2{stroke:#231f20;}.cls-2,.cls-3,.cls-4,.cls-5{stroke-miterlimit:10;}.cls-3,.cls-5{fill:none;}.cls-3{stroke:#414042;}.cls-4{fill:#754c29;stroke:#603913;stroke-width:0.25px;}.cls-5{stroke:#be1e2d;stroke-width:11px;}</style></defs><path class="cls-1" d="M0,300s4-22.34,17-25.83,14.33-10.84,16.43-13.64c1.68-2.24,4.7-23.93,12.64-24.84,2.62-.29,3.53,3.86,6.94,3.86,3.87,0,6.61-5.21,8.39-8,4.19-6.63,10.37-10.37,22.73-17.83,17.86-10.79,23.66-3.84,32.52-12.59,8.45-8.33,2.9-14.36,13.46-29.49,2.83-4.06,12.88-18.45,23.95-16.81a14.34,14.34,0,0,1,7.34,3.64l26.23-25.87,59.09-21.33S291.45,75.92,292.5,85,300,91,300,91V300Z" transform="translate(0 -39.62)"/><path class="cls-2" d="M-55.75,135.71" transform="translate(0 -39.62)"/><path class="cls-3" d="M54,271.37s9.44-18.53,17.48-10.49" transform="translate(0 -39.62)"/><path class="cls-3" d="M110.34,265.11s12.23-5.63,16.78-17.87" transform="translate(0 -39.62)"/><path class="cls-3" d="M130.62,214s19.23-35.32,37.76-15.74S190.06,211.58,210,187.1s59.79-27.27,59.79-27.27" transform="translate(0 -39.62)"/><path class="cls-3" d="M185.86,261.93s17.48-47.2,48.25-38.81S300,193.4,300,193.4" transform="translate(0 -39.62)"/><path class="cls-3" d="M229.22,132.91c1.05.7,41.61-20.63,46.5-21s21.33,10.5,21.33,10.5" transform="translate(0 -39.62)"/><path class="cls-3" d="M41.1,250" transform="translate(0 -39.62)"/><rect class="cls-1" x="56.75" y="30.59" width="46.98" height="46.98"/><rect class="cls-4" x="46.79" y="35.82" width="46.98" height="46.98"/><path class="cls-2" d="M56.75,70.21" transform="translate(0 -39.62)"/><polygon class="cls-4" points="56.76 30.59 46.79 35.82 93.77 35.82 103.74 30.59 56.76 30.59"/><polygon class="cls-4" points="103.74 30.59 93.77 35.82 93.77 82.8 103.74 77.57 103.74 30.59"/><circle class="cls-5" cx="77.02" cy="59.09" r="53.59"/><line class="cls-5" x1="38.27" y1="96.09" x2="116.96" y2="23.37"/><path class="cls-5" d="M200,179.3" transform="translate(0 -39.62)"/></svg>