<svg id="Layer_1" data-name="Layer 1" xmlns="http://www.w3.org/2000/svg" viewBox="0 0 183.37 154.89"><defs><style>.cls-1,.cls-2{fill:none;}.cls-1,.cls-3,.cls-4{stroke:#fff;}.cls-1,.cls-2,.cls-3,.cls-4,.cls-5{stroke-miterlimit:10;}.cls-1,.cls-2,.cls-5{stroke-width:3px;}.cls-2{stroke:#00a651;}.cls-3,.cls-4,.cls-5{fill:#fff;}.cls-4{stroke-width:2px;}.cls-5{stroke:#be1e2d;}</style></defs><polygon class="cls-1" points="1.5 2.25 53.44 23.87 83.23 4.74 135.17 25.95 181.87 5.16 181.87 143.62 135.17 153.18 86.81 134.47 55.45 153.18 1.5 126.86 1.5 2.25"/><polyline class="cls-2" points="15.59 55.06 24.45 60.05 34.11 41.33"/><line class="cls-3" x1="53.44" y1="23.87" x2="55.45" y2="153.18"/><line class="cls-3" x1="83.23" y1="4.74" x2="86.81" y2="134.47"/><line class="cls-4" x1="135.17" y1="25.95" x2="135.17" y2="153.18"/><line class="cls-5" x1="96.92" y1="50.69" x2="109.8" y2="69.61"/><line class="cls-5" x1="111.26" y1="51.95" x2="95.47" y2="68.35"/><polyline class="cls-2" points="60.08 118.87 68.94 123.86 78.6 105.15"/><line class="cls-5" x1="65.2" y1="54.29" x2="73.48" y2="75.78"/><line class="cls-5" x1="78.86" y1="58.95" x2="59.82" y2="71.12"/><line class="cls-5" x1="154.09" y1="90.79" x2="166.98" y2="109.7"/><line class="cls-5" x1="168.43" y1="92.04" x2="152.64" y2="108.45"/><polyline class="cls-2" points="148.46 49.3 157.31 54.29 166.98 35.58"/></svg>