<svg id="Layer_1" data-name="Layer 1" xmlns="http://www.w3.org/2000/svg" viewBox="0 0 280.63 250.61"><defs><style>.cls-1{fill:#f6cb6e;}.cls-2,.cls-4{fill:none;}.cls-2{stroke:#231f20;stroke-miterlimit:10;}.cls-3{fill:#ffce85;}</style></defs><polygon class="cls-1" points="280.63 73.2 123.79 250.61 5.59 141.11 0 135.93 161 0 166.03 3.08 169.21 5.02 175.61 8.94 183.17 13.57 186.15 15.39 280.63 73.2"/><line class="cls-2" x1="5.59" y1="141.11" x2="166.03" y2="3.08"/><circle class="cls-3" cx="119.72" cy="54.19" r="5.42"/><circle class="cls-3" cx="129.86" cy="45.49" r="5.42"/><circle class="cls-3" cx="139.99" cy="36.78" r="5.42"/><circle class="cls-3" cx="150.1" cy="27.72" r="5.42"/><circle class="cls-3" cx="160.24" cy="19.01" r="5.42"/><path class="cls-3" d="M178.15,40.62a5.42,5.42,0,0,1-1.63-10.69l6.4,3.92a5.29,5.29,0,0,1,.16.9A5.42,5.42,0,0,1,178.15,40.62Z" transform="translate(-7.31 -24.91)"/><circle class="cls-3" cx="131.33" cy="62.74" r="5.42"/><circle class="cls-3" cx="141.47" cy="54.03" r="5.42"/><circle class="cls-3" cx="151.61" cy="45.33" r="5.42"/><circle class="cls-3" cx="161.71" cy="36.26" r="5.42"/><circle class="cls-3" cx="171.85" cy="27.56" r="5.42"/><circle class="cls-3" cx="181.99" cy="18.85" r="5.42"/><circle class="cls-3" cx="141.85" cy="71.37" r="5.42"/><circle class="cls-3" cx="151.99" cy="62.67" r="5.42"/><circle class="cls-3" cx="162.13" cy="53.97" r="5.42"/><circle class="cls-3" cx="172.23" cy="44.9" r="5.42"/><circle class="cls-3" cx="182.37" cy="36.2" r="5.42"/><circle class="cls-3" cx="192.51" cy="27.49" r="5.42"/><circle class="cls-3" cx="152.17" cy="78.33" r="5.42"/><circle class="cls-3" cx="162.31" cy="69.62" r="5.42"/><circle class="cls-3" cx="172.45" cy="60.92" r="5.42"/><circle class="cls-3" cx="182.55" cy="51.85" r="5.42"/><circle class="cls-3" cx="192.69" cy="43.15" r="5.42"/><circle class="cls-3" cx="202.83" cy="34.44" r="5.42"/><circle class="cls-3" cx="163.64" cy="85.18" r="5.42"/><circle class="cls-3" cx="173.78" cy="76.47" r="5.42"/><circle class="cls-3" cx="183.92" cy="67.77" r="5.42"/><circle class="cls-3" cx="194.02" cy="58.71" r="5.42"/><circle class="cls-3" cx="204.16" cy="50" r="5.42"/><circle class="cls-3" cx="214.3" cy="41.3" r="5.42"/><circle class="cls-3" cx="173.51" cy="93.69" r="5.42"/><circle class="cls-3" cx="183.65" cy="84.99" r="5.42"/><circle class="cls-3" cx="193.79" cy="76.28" r="5.42"/><circle class="cls-3" cx="203.89" cy="67.22" r="5.42"/><circle class="cls-3" cx="214.03" cy="58.51" r="5.42"/><circle class="cls-3" cx="224.17" cy="49.81" r="5.42"/><circle class="cls-3" cx="236.62" cy="56.26" r="5.42"/><circle class="cls-3" cx="249.04" cy="63.94" r="5.42"/><circle class="cls-3" cx="261.47" cy="72.64" r="5.42"/><path class="cls-3" d="M61.24,132.83a5.42,5.42,0,1,1,5.86,4.94,5.41,5.41,0,0,1-5.86-4.94" transform="translate(-7.31 -24.91)"/><circle class="cls-3" cx="69.47" cy="98.76" r="5.42"/><circle class="cls-3" cx="79.6" cy="90.05" r="5.42"/><circle class="cls-3" cx="89.71" cy="80.99" r="5.42"/><circle class="cls-3" cx="99.85" cy="72.28" r="5.42"/><circle class="cls-3" cx="109.98" cy="63.58" r="5.42"/><circle class="cls-3" cx="70.95" cy="116.01" r="5.42"/><circle class="cls-3" cx="81.08" cy="107.3" r="5.42"/><circle class="cls-3" cx="91.22" cy="98.6" r="5.42"/><circle class="cls-3" cx="101.33" cy="89.53" r="5.42"/><circle class="cls-3" cx="111.46" cy="80.83" r="5.42"/><circle class="cls-3" cx="121.6" cy="72.12" r="5.42"/><circle class="cls-3" cx="81.47" cy="124.65" r="5.42"/><circle class="cls-3" cx="91.6" cy="115.94" r="5.42"/><circle class="cls-3" cx="101.74" cy="107.24" r="5.42"/><circle class="cls-3" cx="111.85" cy="98.17" r="5.42"/><circle class="cls-3" cx="121.98" cy="89.47" r="5.42"/><circle class="cls-3" cx="132.12" cy="80.76" r="5.42"/><circle class="cls-3" cx="91.78" cy="131.6" r="5.42"/><circle class="cls-3" cx="101.92" cy="122.89" r="5.42"/><circle class="cls-3" cx="112.06" cy="114.19" r="5.42"/><circle class="cls-3" cx="122.16" cy="105.12" r="5.42"/><circle class="cls-3" cx="132.3" cy="96.42" r="5.42"/><circle class="cls-3" cx="142.44" cy="87.71" r="5.42"/><circle class="cls-3" cx="103.25" cy="138.45" r="5.42"/><circle class="cls-3" cx="113.39" cy="129.75" r="5.42"/><circle class="cls-3" cx="123.53" cy="121.04" r="5.42"/><circle class="cls-3" cx="133.63" cy="111.98" r="5.42"/><circle class="cls-3" cx="143.77" cy="103.27" r="5.42"/><circle class="cls-3" cx="153.91" cy="94.57" r="5.42"/><circle class="cls-3" cx="113.13" cy="146.96" r="5.42"/><circle class="cls-3" cx="123.26" cy="138.26" r="5.42"/><circle class="cls-3" cx="133.4" cy="129.55" r="5.42"/><circle class="cls-3" cx="143.51" cy="120.49" r="5.42"/><circle class="cls-3" cx="153.64" cy="111.78" r="5.42"/><circle class="cls-3" cx="163.78" cy="103.08" r="5.42"/><path class="cls-3" d="M28.75,175.07l-6.39-6.59a5.42,5.42,0,1,1,6.39,6.59Z" transform="translate(-7.31 -24.91)"/><circle class="cls-3" cx="30.43" cy="135.79" r="5.42"/><circle class="cls-3" cx="40.56" cy="127.08" r="5.42"/><circle class="cls-3" cx="50.7" cy="118.38" r="5.42"/><circle class="cls-3" cx="31.93" cy="153.4" r="5.42"/><circle class="cls-3" cx="42.04" cy="144.33" r="5.42"/><circle class="cls-3" cx="52.18" cy="135.63" r="5.42"/><circle class="cls-3" cx="62.31" cy="126.92" r="5.42"/><circle class="cls-3" cx="42.45" cy="162.03" r="5.42"/><circle class="cls-3" cx="52.56" cy="152.97" r="5.42"/><circle class="cls-3" cx="62.7" cy="144.27" r="5.42"/><circle class="cls-3" cx="72.84" cy="135.56" r="5.42"/><path class="cls-3" d="M55.37,202.51l-5.16-5.32a5.42,5.42,0,0,1,5.14,4.95C55.36,202.27,55.37,202.39,55.37,202.51Z" transform="translate(-7.31 -24.91)"/><circle class="cls-3" cx="52.77" cy="168.99" r="5.42"/><circle class="cls-3" cx="62.88" cy="159.92" r="5.42"/><circle class="cls-3" cx="73.02" cy="151.22" r="5.42"/><circle class="cls-3" cx="83.15" cy="142.51" r="5.42"/><path class="cls-3" d="M65.52,213,58,205.24a5.25,5.25,0,0,1,3-1.19A5.42,5.42,0,0,1,65.52,213Z" transform="translate(-7.31 -24.91)"/><circle class="cls-3" cx="64.24" cy="175.84" r="5.42"/><circle class="cls-3" cx="74.35" cy="166.77" r="5.42"/><circle class="cls-3" cx="84.49" cy="158.07" r="5.42"/><circle class="cls-3" cx="94.62" cy="149.37" r="5.42"/><path class="cls-3" d="M74.56,222.3l-7.5-7.74a5.43,5.43,0,1,1,7.5,7.74Z" transform="translate(-7.31 -24.91)"/><circle class="cls-3" cx="74.11" cy="184.35" r="5.42"/><circle class="cls-3" cx="84.22" cy="175.29" r="5.42"/><circle class="cls-3" cx="94.36" cy="166.58" r="5.42"/><circle class="cls-3" cx="104.5" cy="157.88" r="5.42"/><circle class="cls-3" cx="174.35" cy="108.94" r="5.42"/><circle class="cls-3" cx="184.48" cy="100.24" r="5.42"/><circle class="cls-3" cx="194.62" cy="91.53" r="5.42"/><circle class="cls-3" cx="204.73" cy="82.47" r="5.42"/><circle class="cls-3" cx="214.86" cy="73.76" r="5.42"/><circle class="cls-3" cx="225" cy="65.06" r="5.42"/><circle class="cls-3" cx="185.96" cy="117.49" r="5.42"/><circle class="cls-3" cx="196.1" cy="108.78" r="5.42"/><circle class="cls-3" cx="206.24" cy="100.08" r="5.42"/><circle class="cls-3" cx="216.34" cy="91.01" r="5.42"/><circle class="cls-3" cx="226.48" cy="82.31" r="5.42"/><circle class="cls-3" cx="236.62" cy="73.6" r="5.42"/><circle class="cls-3" cx="196.48" cy="126.13" r="5.42"/><circle class="cls-3" cx="206.62" cy="117.42" r="5.42"/><circle class="cls-3" cx="216.76" cy="108.72" r="5.42"/><circle class="cls-3" cx="226.86" cy="99.65" r="5.42"/><circle class="cls-3" cx="237" cy="90.95" r="5.42"/><circle class="cls-3" cx="247.14" cy="82.24" r="5.42"/><circle class="cls-3" cx="206.8" cy="133.08" r="5.42"/><circle class="cls-3" cx="216.94" cy="124.37" r="5.42"/><circle class="cls-3" cx="227.08" cy="115.67" r="5.42"/><path class="cls-3" d="M115.87,187.58a5.42,5.42,0,1,1,5.86,4.94,5.41,5.41,0,0,1-5.86-4.94" transform="translate(-7.31 -24.91)"/><circle class="cls-3" cx="124.1" cy="153.51" r="5.42"/><circle class="cls-3" cx="134.23" cy="144.8" r="5.42"/><circle class="cls-3" cx="144.34" cy="135.74" r="5.42"/><circle class="cls-3" cx="154.48" cy="127.03" r="5.42"/><circle class="cls-3" cx="164.61" cy="118.33" r="5.42"/><circle class="cls-3" cx="125.57" cy="170.76" r="5.42"/><circle class="cls-3" cx="135.71" cy="162.05" r="5.42"/><circle class="cls-3" cx="146.41" cy="153.21" r="5.42"/><circle class="cls-3" cx="155.95" cy="144.28" r="5.42"/><circle class="cls-3" cx="166.09" cy="135.58" r="5.42"/><circle class="cls-3" cx="176.23" cy="126.87" r="5.42"/><circle class="cls-3" cx="136.09" cy="179.4" r="5.42"/><circle class="cls-3" cx="146.23" cy="170.69" r="5.42"/><circle class="cls-3" cx="156.37" cy="161.99" r="5.42"/><circle class="cls-3" cx="166.48" cy="152.92" r="5.42"/><circle class="cls-3" cx="176.61" cy="144.22" r="5.42"/><circle class="cls-3" cx="186.75" cy="135.51" r="5.42"/><circle class="cls-3" cx="146.41" cy="186.35" r="5.42"/><circle class="cls-3" cx="156.55" cy="177.64" r="5.42"/><circle class="cls-3" cx="166.69" cy="168.94" r="5.42"/><circle class="cls-3" cx="176.79" cy="159.87" r="5.42"/><circle class="cls-3" cx="186.93" cy="151.17" r="5.42"/><circle class="cls-3" cx="197.07" cy="142.46" r="5.42"/><circle class="cls-3" cx="157.88" cy="193.2" r="5.42"/><path class="cls-3" d="M180,208.14l-5.81,6.54a5.43,5.43,0,1,1,5.81-6.54Z" transform="translate(-7.31 -24.91)"/><path class="cls-3" d="M189.76,197.47l-6.95,7.82a5.42,5.42,0,1,1,6.95-7.82Z" transform="translate(-7.31 -24.91)"/><path class="cls-3" d="M83.38,229.82,77,223.23a5.42,5.42,0,1,1,6.39,6.59Z" transform="translate(-7.31 -24.91)"/><circle class="cls-3" cx="85.05" cy="190.54" r="5.42"/><circle class="cls-3" cx="95.19" cy="181.83" r="5.42"/><circle class="cls-3" cx="105.33" cy="173.13" r="5.42"/><circle class="cls-3" cx="86.56" cy="208.15" r="5.42"/><circle class="cls-3" cx="96.67" cy="199.08" r="5.42"/><circle class="cls-3" cx="106.81" cy="190.38" r="5.42"/><circle class="cls-3" cx="116.94" cy="181.67" r="5.42"/><circle class="cls-3" cx="97.08" cy="216.79" r="5.42"/><circle class="cls-3" cx="107.19" cy="207.72" r="5.42"/><circle class="cls-3" cx="117.33" cy="199.02" r="5.42"/><circle class="cls-3" cx="127.46" cy="190.31" r="5.42"/><circle class="cls-3" cx="107.4" cy="223.74" r="5.42"/><circle class="cls-3" cx="117.51" cy="214.67" r="5.42"/><circle class="cls-3" cx="127.65" cy="205.97" r="5.42"/><circle class="cls-3" cx="137.78" cy="197.26" r="5.42"/><circle class="cls-3" cx="118.87" cy="230.59" r="5.42"/><circle class="cls-3" cx="128.98" cy="221.53" r="5.42"/><circle class="cls-3" cx="139.12" cy="212.82" r="5.42"/><path class="cls-3" d="M161.34,229.17a3.86,3.86,0,0,0,0-.68,5.42,5.42,0,1,0-4.93,5.87l.37-.05Z" transform="translate(-7.31 -24.91)"/><line class="cls-4" x1="153.2" y1="205.97" x2="190.7" y2="162.8"/><polyline class="cls-2" points="118.15 245.39 150.09 209.47 154.66 204.33 160.2 198.1 163.01 194.94 163.02 194.93 167.5 189.9 173.31 183.36 175.73 180.64 182.68 172.82 184.57 170.69 191.77 162.6 193.6 160.54 200.34 152.96 229 120.74 232.32 117.01 232.33 117 236.76 112.01 242.5 105.56 244.96 102.78 251.89 95 253.63 93.03 260.82 84.95 274.57 69.49"/></svg>