<svg id="Layer_1" data-name="Layer 1" xmlns="http://www.w3.org/2000/svg" viewBox="0 0 260.7 284.69"><defs><style>.cls-1{fill:#666a6c;}.cls-2{fill:#bcbeb7;}.cls-3{fill:#e5f1f1;}.cls-4{fill:none;stroke:#ec008c;stroke-miterlimit:10;stroke-width:2px;}</style></defs><path class="cls-1" d="M85.45,250l4.15,8,7.57,14.28,5.85,11c3.27,6.15,8.8,6.28,15.39,4l18.07-13,11.43-9L279,154.57a8.19,8.19,0,0,0,1.81-10.42c-3.08-5.2-10.51-13.56-27.67-26.47C253.16,117.68,157.74,206.6,85.45,250Z" transform="translate(-21.27 -3.92)"/><path class="cls-2" d="M129.59,268.82c-2.6.58-25.47,15.68-26.89,13L96,269.22s11.85-4.16,27.17-14.17c0,0,139.31-121.77,142.09-126.32,1.26-2.07,11.74,9.69,11.74,9.69" transform="translate(-21.27 -3.92)"/><path class="cls-3" d="M131.87,3.92,21.27,91.1q32.52,80,65.06,160c10.42-8.85,21.17-23.45,32.53-49,0,0,77.63-27.32,95.42-54.21l40.33-29.06Z" transform="translate(-21.27 -3.92)"/><path class="cls-4" d="M-16,203.14" transform="translate(-21.27 -3.92)"/><path d="M86.33,251.14S242,145.52,254.61,118.86l-40.33,29.06s-24.73,31.8-95.42,54.21Z" transform="translate(-21.27 -3.92)"/></svg>