<svg id="Layer_1" data-name="Layer 1" xmlns="http://www.w3.org/2000/svg" viewBox="0 0 93.69 68.6"><defs><style>.cls-1,.cls-3{fill:none;}.cls-1,.cls-2,.cls-3,.cls-4,.cls-5,.cls-6{stroke:#fff;}.cls-1,.cls-5,.cls-6{stroke-miterlimit:10;}.cls-2,.cls-4,.cls-5,.cls-6{fill:#fff;}.cls-2,.cls-3,.cls-4{stroke-linecap:round;stroke-linejoin:round;}.cls-3,.cls-4{stroke-width:0.75px;}.cls-6{stroke-width:0.5px;}</style></defs><rect class="cls-1" x="0.5" y="0.5" width="92.69" height="67.6" rx="4.93"/><line class="cls-2" x1="85.64" y1="2.45" x2="87.71" y2="4.64"/><line class="cls-2" x1="87.67" y1="2.43" x2="85.57" y2="4.59"/><line class="cls-2" x1="79.07" y1="3.55" x2="82.21" y2="3.55"/><path class="cls-2" d="M28.4,11.37v5.21H4.33A4.43,4.43,0,0,1,7,11.69Z" transform="translate(-3.33 -10.87)"/><polyline class="cls-2" points="2.93 7.28 1.75 8.28 2.93 9.39"/><line class="cls-2" x1="1.75" y1="8.28" x2="4.6" y2="8.28"/><polyline class="cls-2" points="8.06 9.39 9.24 8.39 8.06 7.28"/><line class="cls-2" x1="9.24" y1="8.39" x2="6.39" y2="8.39"/><path class="cls-3" d="M15.64,17.58l.69.5-.23,0a1.19,1.19,0,0,0-1.27,1.09,1.28,1.28,0,0,0,2.54,0,.12.12,0,0,0,0-.08" transform="translate(-3.33 -10.87)"/><line class="cls-4" x1="13" y1="7.21" x2="12.63" y2="7.9"/><path class="cls-5" d="M20.06,43.71a7.41,7.41,0,0,1-3,.54c-3.23,0-5.66-2-5.66-5.79a5.7,5.7,0,0,1,6-6,6,6,0,0,1,2.72.51l-.35,1.21a5.26,5.26,0,0,0-2.31-.48c-2.69,0-4.47,1.72-4.47,4.72,0,2.81,1.61,4.61,4.4,4.61a6,6,0,0,0,2.41-.47Z" transform="translate(-3.33 -10.87)"/><path class="cls-5" d="M23.48,33.54a.93.93,0,0,1-1.86,0,.91.91,0,0,1,.94-.93A.89.89,0,0,1,23.48,33.54ZM21.81,44.08V35.85h1.5v8.23Z" transform="translate(-3.33 -10.87)"/><path class="cls-5" d="M27.59,33.49v2.36h2.14V37H27.59v4.44c0,1,.29,1.6,1.12,1.6a3.44,3.44,0,0,0,.87-.1l.07,1.12a3.67,3.67,0,0,1-1.33.2,2,2,0,0,1-1.61-.63,3,3,0,0,1-.58-2.14V37H24.85V35.85h1.28v-2Z" transform="translate(-3.33 -10.87)"/><path class="cls-5" d="M32.11,35.85l1.8,4.87c.19.54.39,1.19.53,1.68h0c.16-.49.33-1.12.53-1.72l1.63-4.83h1.58L36,41.72c-1.07,2.82-1.8,4.27-2.82,5.15a4,4,0,0,1-1.84,1l-.37-1.26a4.07,4.07,0,0,0,1.31-.73,4.46,4.46,0,0,0,1.25-1.67,1,1,0,0,0,.12-.35,1.15,1.15,0,0,0-.1-.39l-3-7.59Z" transform="translate(-3.33 -10.87)"/><path class="cls-5" d="M45.08,40.48l-1.19,3.6H42.36l3.89-11.46H48L52,44.08H50.37l-1.23-3.6Zm3.76-1.16L47.72,36c-.26-.74-.43-1.42-.6-2.09h0c-.17.68-.36,1.38-.58,2.08l-1.12,3.31Z" transform="translate(-3.33 -10.87)"/><path class="cls-5" d="M13.16,61.24l0-.45a3.93,3.93,0,0,1,1.06-2.94,3.75,3.75,0,0,0,1.19-2.33c0-.86-.55-1.44-1.62-1.46a3.07,3.07,0,0,0-1.72.53l-.4-1.07a4.44,4.44,0,0,1,2.43-.68,2.52,2.52,0,0,1,2.84,2.5,4.57,4.57,0,0,1-1.47,2.95,3.42,3.42,0,0,0-1,2.5l0,.45Zm-.38,2.38a1,1,0,0,1,1-1.08,1.07,1.07,0,1,1-1,1.08Z" transform="translate(-3.33 -10.87)"/><path class="cls-5" d="M20.06,61.24l0-.45a3.93,3.93,0,0,1,1.06-2.94,3.75,3.75,0,0,0,1.19-2.33c0-.86-.55-1.44-1.62-1.46a3,3,0,0,0-1.71.53l-.41-1.07A4.44,4.44,0,0,1,21,52.84a2.52,2.52,0,0,1,2.84,2.5,4.6,4.6,0,0,1-1.46,2.95,3.38,3.38,0,0,0-1,2.5v.45Zm-.38,2.38a1,1,0,0,1,1-1.08,1,1,0,0,1,1,1.08,1,1,0,1,1-2,0Z" transform="translate(-3.33 -10.87)"/><path class="cls-5" d="M27,61.24l0-.45A3.87,3.87,0,0,1,28,57.85a3.75,3.75,0,0,0,1.19-2.33c0-.86-.54-1.44-1.62-1.46a3,3,0,0,0-1.71.53l-.41-1.07a4.44,4.44,0,0,1,2.43-.68c2,0,2.84,1.21,2.84,2.5a4.6,4.6,0,0,1-1.46,2.95,3.38,3.38,0,0,0-1,2.5l0,.45Zm-.37,2.38a1,1,0,1,1,2,0,1,1,0,1,1-2,0Z" transform="translate(-3.33 -10.87)"/><path class="cls-6" d="M11.12,66.93h.44v3.55h-.44Z" transform="translate(-3.33 -10.87)"/><path class="cls-6" d="M13.65,70.48l0-.3h0a.92.92,0,0,1-.74.36.7.7,0,0,1-.75-.7c0-.58.53-.9,1.46-.9v0a.5.5,0,0,0-.55-.56,1.22,1.22,0,0,0-.63.18l-.1-.29a1.51,1.51,0,0,1,.8-.22c.74,0,.92.51.92,1v.9a3.37,3.37,0,0,0,0,.58Zm-.07-1.23c-.48,0-1,.07-1,.54a.39.39,0,0,0,.41.42.61.61,0,0,0,.59-.4.78.78,0,0,0,0-.14Z" transform="translate(-3.33 -10.87)"/><path class="cls-6" d="M14.65,70a1.18,1.18,0,0,0,.59.18c.32,0,.47-.16.47-.36s-.13-.33-.45-.45-.65-.39-.65-.68a.76.76,0,0,1,.84-.72,1.22,1.22,0,0,1,.6.16l-.11.32a1,1,0,0,0-.5-.15.36.36,0,0,0-.4.34c0,.2.14.29.46.41s.63.37.63.73-.33.72-.9.72a1.41,1.41,0,0,1-.69-.16Z" transform="translate(-3.33 -10.87)"/><path class="cls-6" d="M17.23,67.36v.7h.63v.34h-.63v1.3c0,.3.08.47.33.47a.77.77,0,0,0,.25,0l0,.33a1,1,0,0,1-.39.06.6.6,0,0,1-.47-.18.88.88,0,0,1-.18-.63V68.4h-.37v-.34h.37v-.58Z" transform="translate(-3.33 -10.87)"/><path class="cls-6" d="M21.44,69.82c0,.25,0,.47,0,.66h-.39l0-.39h0a.91.91,0,0,1-.8.45c-.38,0-.84-.21-.84-1.06V68.06h.44V69.4c0,.46.15.77.55.77a.63.63,0,0,0,.58-.4.72.72,0,0,0,0-.22V68.06h.44Z" transform="translate(-3.33 -10.87)"/><path class="cls-6" d="M22.16,68.85c0-.31,0-.56,0-.79h.4l0,.42h0a1,1,0,0,1,.86-.48,1.1,1.1,0,0,1,1,1.24,1.15,1.15,0,0,1-1.1,1.3.86.86,0,0,1-.75-.38h0v1.31h-.44Zm.44.65a1.1,1.1,0,0,0,0,.18.68.68,0,0,0,.66.51c.47,0,.74-.38.74-.93s-.26-.9-.72-.9a.71.71,0,0,0-.67.54,1.13,1.13,0,0,0,0,.18Z" transform="translate(-3.33 -10.87)"/><path class="cls-6" d="M27.1,66.93v2.93c0,.21,0,.46,0,.62h-.39l0-.42h0a.91.91,0,0,1-.83.48,1.11,1.11,0,0,1-1-1.23A1.17,1.17,0,0,1,25.92,68a.8.8,0,0,1,.73.38h0V66.93Zm-.44,2.12a.62.62,0,0,0,0-.19.64.64,0,0,0-.63-.51c-.46,0-.73.4-.73.94s.24.89.72.89a.66.66,0,0,0,.64-.52.58.58,0,0,0,0-.19Z" transform="translate(-3.33 -10.87)"/><path class="cls-6" d="M29.17,70.48l0-.3h0a.89.89,0,0,1-.74.36.69.69,0,0,1-.74-.7c0-.58.52-.9,1.46-.9v0a.5.5,0,0,0-.56-.56,1.22,1.22,0,0,0-.63.18l-.1-.29a1.51,1.51,0,0,1,.8-.22c.74,0,.92.51.92,1v.9a3.37,3.37,0,0,0,0,.58Zm-.06-1.23c-.49,0-1,.07-1,.54a.39.39,0,0,0,.42.42.6.6,0,0,0,.58-.4.39.39,0,0,0,0-.14Z" transform="translate(-3.33 -10.87)"/><path class="cls-6" d="M30.75,67.36v.7h.63v.34h-.63v1.3c0,.3.08.47.33.47a.84.84,0,0,0,.26,0l0,.33a1,1,0,0,1-.4.06.6.6,0,0,1-.47-.18.88.88,0,0,1-.17-.63V68.4h-.38v-.34h.38v-.58Z" transform="translate(-3.33 -10.87)"/><path class="cls-6" d="M32.09,69.35a.77.77,0,0,0,.83.84,1.57,1.57,0,0,0,.67-.12l.08.31a2,2,0,0,1-.81.15,1.12,1.12,0,0,1-1.19-1.22A1.18,1.18,0,0,1,32.81,68a1,1,0,0,1,1,1.15.88.88,0,0,1,0,.2ZM33.38,69a.62.62,0,0,0-.61-.72.73.73,0,0,0-.68.72Z" transform="translate(-3.33 -10.87)"/><path class="cls-6" d="M36.44,66.93v2.93c0,.21,0,.46,0,.62h-.39l0-.42h0a.91.91,0,0,1-.83.48,1.11,1.11,0,0,1-1-1.23A1.17,1.17,0,0,1,35.26,68a.8.8,0,0,1,.73.38h0V66.93ZM36,69.05a.62.62,0,0,0,0-.19.64.64,0,0,0-.63-.51c-.46,0-.73.4-.73.94s.24.89.71.89a.66.66,0,0,0,.65-.52.58.58,0,0,0,0-.19Z" transform="translate(-3.33 -10.87)"/><path class="cls-6" d="M37.06,68.46a.3.3,0,1,1,.6,0,.3.3,0,1,1-.6,0Zm0,1.77a.3.3,0,1,1,.3.31A.3.3,0,0,1,37.06,70.23Z" transform="translate(-3.33 -10.87)"/><path class="cls-6" d="M39.12,70.48v-.27l.35-.33c.83-.79,1.21-1.21,1.21-1.71a.57.57,0,0,0-.64-.63,1.15,1.15,0,0,0-.7.27l-.14-.31a1.45,1.45,0,0,1,.92-.33.91.91,0,0,1,1,1c0,.6-.43,1.09-1.12,1.75l-.26.24H41.2v.36Z" transform="translate(-3.33 -10.87)"/><path class="cls-6" d="M43.85,68.82c0,1.11-.41,1.72-1.13,1.72s-1.07-.6-1.08-1.67.47-1.7,1.14-1.7S43.85,67.79,43.85,68.82Zm-1.77.05c0,.85.26,1.33.67,1.33s.66-.53.66-1.36-.2-1.33-.66-1.33S42.08,68,42.08,68.87Z" transform="translate(-3.33 -10.87)"/><path class="cls-6" d="M45.21,67.64h0l-.57.31-.08-.34.71-.38h.38v3.25h-.43Z" transform="translate(-3.33 -10.87)"/><path class="cls-6" d="M46.92,70a1.51,1.51,0,0,0,.72.2c.57,0,.75-.36.74-.63,0-.45-.42-.65-.84-.65h-.25v-.33h.25c.32,0,.73-.16.73-.55s-.17-.49-.58-.49a1.12,1.12,0,0,0-.65.22l-.11-.33a1.59,1.59,0,0,1,.85-.25c.64,0,.93.38.93.78a.81.81,0,0,1-.6.77h0a.85.85,0,0,1,.73.83c0,.52-.41,1-1.19,1a1.71,1.71,0,0,1-.85-.22Z" transform="translate(-3.33 -10.87)"/></svg>